<?xml version="1.0" encoding="utf-8"?>
<!-- Generator: Adobe Illustrator 25.4.1, SVG Export Plug-In . SVG Version: 6.00 Build 0)  -->
<svg version="1.1" id="Livello_1" xmlns="http://www.w3.org/2000/svg" xmlns:xlink="http://www.w3.org/1999/xlink" x="0px" y="0px"
	 width="222.9px" height="144.8px" viewBox="0 0 222.9 144.8" style="enable-background:new 0 0 222.9 144.8;" xml:space="preserve"
	>
<g>
	<defs>
		<filter id="Adobe_OpacityMaskFilter" filterUnits="userSpaceOnUse" x="0" y="20.9" width="222.9" height="123.9">
			<feFlood  style="flood-color:white;flood-opacity:1" result="back"/>
			<feBlend  in="SourceGraphic" in2="back" mode="normal"/>
		</filter>
	</defs>
	<mask maskUnits="userSpaceOnUse" x="0" y="20.9" width="222.9" height="123.9" id="SVGID_1_">
		<g style="filter:url(#Adobe_OpacityMaskFilter);">
			<path d="M94.1,36.3c0,0-3.6-1-2.1,0.9c0.8,1.1,5.2,5.9,9,6.5c6.1,0.9,11-0.6,11-0.6s7.9-2.2,15.7-6.5c6.4-3.6,4.7-4.4,4.7-4.4
				L94.1,36.3z"/>
		</g>
	</mask>
	<g style="mask:url(#SVGID_1_);">
		<path style="fill:#877453;" d="M19.9,144.8L0.6,120l0.8-2.8c0.2-0.7,5.2-18,5.1-35.3c-0.1-17-5.2-31.2-5.4-31.8L0,47.3L19.2,22
			l4.6,2.1C38.6,30.9,64.6,36,93.5,37.7l1.4,0.1l0,0.1c3,0.1,10.7,0.3,12.3,0.2l16.5-0.3c23.9-1.3,56.1-5.9,74.8-14.8l4.6-2.2
			l19.5,25l-1,2.9c-0.2,0.6-5.1,14.8-5,31.8c0.1,16.8,4.9,33.3,5.5,35.2l0.9,2.7l-19.1,25.1l-4.6-2.1c-23-10.6-64.9-14.2-87.4-14.1
			c-22.5,0.1-64.3,4.3-87.2,15.2L19.9,144.8z M6,118.9l15.3,19.7l1-0.5c23.6-11.2,66.4-15.5,89.3-15.6c0.4,0,0.8,0,1.2,0
			c23.2,0,64.9,3.8,88.3,14.6l1,0.5l15.1-19.9l-0.1-0.3c-0.6-1.9-5.6-19.1-5.7-36.6c-0.1-17.6,4.7-31.9,5.3-33.5l0.1-0.4l-15.4-19.7
			l-1,0.5c-24.3,11.6-64.8,14.6-76.7,15.2l-0.1,0l-16.6,0.3c-0.9,0-4.4,0-7.6-0.1c-3.6-0.1-5.5-0.1-6.6-0.3
			c-42.3-2.5-63.9-10.6-71.2-14l-1-0.5L5.6,48.1l0.1,0.3C6,49.1,11.3,64,11.4,81.9c0.1,17.7-4.7,34.8-5.2,36.7L6,118.9z"/>
	</g>
	<g>
		<path style="fill:#877453;" d="M110.9,30.1c0.9,0.5,2.2,0.7,2.2,0.7s-1-0.9-1.5-1.5c-0.5-0.6,0-2,0-2s-4.7-1-5.7-1.2
			c-0.5-0.1-1.2-0.2-1.6,0c-0.4,0.3-1.8,1.3-1.8,1.5c-0.1,0.4,0.1,1.4,0.4,2.4c0.1,0.3,0.5,0.7,1,1c0.3,0.5,0.7,1.4,1.4,2
			c1,0.9,2,1,2,1s-1.8-1.9-1.9-2.7c1.4,0.3,1.7,1,1.7,1c0.5,0.7,0.9,1.3,0.9,1.3s0.8-0.7,0.3-1.8c-0.2-0.5,0.6-0.9,0.6-0.9
			c0,0,0.3,0.5,0.3,0.5c0.9,1.1,0.5,2.9,0.5,2.9s1.6-1.7,0.7-3.9C110.4,30.4,110.3,29.7,110.9,30.1"/>
		<path style="fill:#877453;" d="M99.7,16.6c-0.5,1.1,0.2,3.2,1.2,2.9c0.3-0.1,0.8-0.6,1.2-0.8c-0.4-1.3,0.5-2.3,0.4-3.1
			c0,0-0.2,0.2-0.7,0.3c-0.9,0.3-0.8-1.2-0.8-1.2S100.1,15.8,99.7,16.6"/>
		<path style="fill:#877453;" d="M102.7,25.5c0.5-0.2,0.9-0.4,1.4-0.6c0.3-0.2,0.3-2.1,0.4-2.5c0-0.4,0.2-1.2-1.5-1.7
			c-0.6-0.2-0.5-1.1-0.5-1.1s-1.2,1.1-1.9,1c-0.4,0.6-0.2,2.9,0.2,3.4C100.9,24.5,101.6,25.9,102.7,25.5"/>
		<path style="fill:#877453;" d="M117.7,22.7c0,0,1.1-2.8,1-4.1c-0.1-1.4-0.4-2.1-0.4-2.1s-1.8,1-1.9,0.7c-0.1-0.4,1.6-1.9,1.6-2.9
			c0,0-0.5-2.6-1.9-3.6c-0.9-0.6-2.7-1.4-4-1.8c-2.4-0.6-4.8,1.8-4.8,1.8s-0.4-2-2.1-1.3c-2.8,1.2-3.6,4.1-3.6,4.1s0.3-0.2,0.9-0.4
			c1.5-0.5,1.5,1.2,1.5,1.2s0.1,1.3-0.5,1.8c-0.9,0.8-0.8,2.1-0.8,2.1l2,0.7c0,0,1.8-0.2,2.8-0.5c1.4-0.5,2.2,0.8,2.2,0.8l1-0.7
			c0,0-0.6,1.6-1.3,1.9c-0.7,0.3-3,0.8-3.5,0.9c-1,0.2-0.7,1.1-0.6,1.3c0.2,0.4,0.2,2.3,1.2,2.5c0.4,0.1,5.4,0.7,6.2,0.4
			c0.9-0.3,1.7-0.9,2.4-1.7c0.9-1-0.9-2.5-0.4-2.7C115.1,20.9,117.7,22.7,117.7,22.7 M113.9,15.9c-0.8,0.1-1.4-0.1-1.9-0.1
			c-1.1,0-1.6,1.3-2.1,1.1c-0.5-0.2,0.6-1.4,0.2-1.5c-0.5-0.1-0.6-0.8-0.6-0.8s0.1-0.9,1-1.3c0.5-0.2,1.5-0.2,2.7,0.3
			c1,0.4,1.2,1,1.5,1.2c0.8,0.5,1.1,0,1.1,0S114.7,15.9,113.9,15.9"/>
		<path style="fill:#877453;" d="M124.4,14.4c2-1.4,4.6-0.6,5.6,0.1c-0.7-2.1-3-3.8-4.5-4.6c-1.2-0.6-2.2-0.6-2.2-0.6
			c0.8,0.4,2,3.9-1.6,4.9c-0.2,1.5,1.3,3.8,1.9,5c-1.1-0.1-2-1-2.9-1.5c-0.6,1.4-1.1,2.9-0.7,4.6c0.3,1.3,1.4,2.2,1.9,3.3
			c-1.7,0.3-4.3-1.5-5.7-1c0.4,1,2.7,4.1,6.1,4.8c-3.9,0.8-7.4-1.8-8.2-3.5c-1.4,2.3,2.3,3.3,3.9,4.7c-1.4,0.1-3-0.4-4.1-1.2
			c0.2,1.3,1.8,1.9,2,3.1c-1.3-0.5-3.5-0.4-4.1-0.8c1.1,1.5,2.3,2.2,4.1,1.9c2-0.3,8.3-4,9.2-2.8c0.9,1.2,1.6,2.8,2.2,3.1
			c1.9,1,3.5-0.3,3.5-0.3s-2-0.6-2.8-2.5c-0.6-1.7-2.2-2.9-4-4.1c1.7,0.4,3.8,0.9,4.6,2.6c0.6,1.2,1.8,1.5,3,1.5
			c-1.1-0.8-1.4-1.7-1.8-2.9c-0.5-1.5-2.1-2.9-3-4.2c1.7,0.4,4,1.3,4.8,4.1c1.5-2.7-1.1-4.9-3-6.3c1.9-0.1,3,0.2,4.2,2.5
			c0.3-5.5-6.4-5.9-7-7.1c3.5-1,7.1,2,7.6,2.9C132.6,15.2,126.4,14.7,124.4,14.4"/>
		<path style="fill:#877453;" d="M108.1,39c0.6,0.2,4.3,2,4.3,2l13.2-4.9c0,0-1.3-2.6-1.8-3c-0.4-0.4-1.4-0.3-3,0.4
			c-1.5,0.7-8.6,3.2-8.6,3.2s-2.2,0.7-3.8,0.7c-1.5-0.1-3.4,0-4.4,0.2c-0.5,0.1-1.1,0.3-1.7,0.6c-0.3-0.3-0.9-0.8-1.2-0.7
			c-0.3,0.1-1.1,0.5-1.2,0.7c-0.1,0.2-0.1,0.6,0.4,0.9c-0.6,0.4-1.4,0.8-1.8,1c-0.4,0.2-1.6,0.3-1.6,0.3s1.6,1,2.8,1
			c1.1,0.1,2.3-0.7,2.3-0.7s4.3,3.1,9.1,5.6c6.7,3.4,11.9,3.9,11.9,3.9s1.3-2.5,0-3.2c-1.3-0.6-7.4-1.3-12.5-3.6
			c-5.7-2.5-7.4-4.4-7.4-4.4l1.8,0.4C104.9,39.4,107.5,38.8,108.1,39 M111.1,38.1c0.5-0.2,11.6-4.6,12-4.4
			c0.4,0.2-10.5,5.2-10.5,5.2s0.5,1.3,0.2,1.4C112.6,40.4,110.6,38.3,111.1,38.1 M102.1,40.3c-0.4,0-0.7-0.3-0.7-0.7
			c0-0.4,0.3-0.7,0.7-0.7c0.4,0,0.7,0.3,0.7,0.7C102.8,40,102.5,40.3,102.1,40.3"/>
		<path style="fill:#877453;" d="M101.6,36.1c2.8,0.1,5.3-0.8,5.3-0.8s-1.7-0.3-2.5-1.2c-0.3-0.3-1.1-0.6-1.5-0.5
			c-0.8,0.2-1.5,0.8-2.4,0.7c0.7-0.8,2.1-1.5,1.9-2.8c-0.3-0.1-0.7-0.3-1-0.6h0c-0.2-0.8-0.3-2.5,0-3.3c-0.6,0.7-1.3,1.6-2.2,1.9
			c0.3-1.1,2-3.5,1.3-4.6c-1-1.4-1.7,1.2-3.7,1.5c2.2-2,2.2-4.2,2.2-4.2s-1.5,1.2-2,1.8c-0.8,0.9-2.5,1.3-2.5,1.3s0.9-0.8,1.6-2
			c1-1.5,2.5-1.6,2.8-3.1c-2.3,0.5-2.6,1.6-3.5,2.2c1-2.5,2.3-3.5,3.2-4.2c-0.8-2,0.9-4.1,1.1-4.9c-1.9-1.2,0-4.8,0.4-5.3
			c0.4,1.3,1,1.8,1.9,2c-0.4-0.5-1-2.8-1.1-3.2c0.7,0.5,2,2,2.7,1.7c0.6-0.2,0.5-0.7,1-1.1c0.8-0.7,1.7-0.8,1.7-0.8s0.2-2,2.5-2.9
			c-0.7,1.2-0.6,2.8-0.3,3.6c0.6-1.6,3.2-2.7,4.9-2.4c-0.4,0.6-1.3,2.2-0.8,2.3c0.5,0.2,1.4-0.6,1.8-0.8c0.8-0.4,1.9-0.5,3.4,0
			c-1.5,0.3-2.2,1.2-2.1,1.7c0.9,0.5,1.9,1.5,2.8,3c0.6,0.9,1.3,2.5,1.6,3.8c0.1,0.3,0.3,0.6,0.4-0.2c0.1-0.8-0.1-2.4-0.3-2.9
			c0.3-0.3,1-0.9,0.7-1.3c-0.3-0.3-1.3-0.2-1.7-0.2c-0.2-0.4-0.9-1.3-1.2-1.8c0.8-0.6,2.9-1,4.3-0.1c1.6,0,3.1,0.6,3.7,0.8
			c-1.4-1.1-5-2.2-5.3-2.2c1.4-0.2,3.5-0.1,4.9,0.5c-1.6-2-3.6-2-5-2.1c0.8-0.5,1.2-0.8,3.5-0.8c-1.5-0.7-4-0.8-6.5,0.6
			c0.3-0.7,0.7-1.6,2-1.9c-1.4-0.2-2.4-0.2-3.3,0c0.6-0.6,2.1-1.3,2.1-1.3s-1.8-0.3-2.8,0c-0.8,0.2-1.3,0.8-1.9,1.3
			c0.1-0.9,1.9-2.5,2-2.6c-2-0.2-2.9,0.9-4.3,1.9c-0.1-0.9,0-1.6-0.7-2.3c0.1,0.7-0.1,1.3-0.5,1.9c-0.2-0.6-0.6-1-1.5-1.2
			c0.1,0.5,0.1,1,0.1,1.5c-0.5-0.7-1.6-2.2-2.4-2.4c0.3,0.6,0.9,2.1,0.8,2.6c-0.4-0.7-1.2-1.3-2-1.6c0.6,0.6,1.2,1.5,1.1,2.3
			c-0.3-0.4-2.3-1.9-3.9-1.3c0.7,0.8,0.5,1.5,0.4,1.7c-1.2-0.6-3.3-0.8-3.3-0.8s1.4,0.6,1.7,1.7c-1.7,0.1-1.8-0.4-3.5-0.1
			c-1.2,0.2-3.4,1.9-3.4,1.9s3.7-0.9,4.1,0.5c0,0-4.2,0.8-5.5,4.4c1.4-1.3,2.2-0.8,3.9-1.4c-1.1,1.8-4.6,3.3-6.4,4.5
			c1.6-0.2,3.7-0.5,5.5-1.8c-0.8,1.4-3.1,3.4-4.6,4.2c2.5,0.1,5.1-1.4,5.1-1.4s-1.4,1.2-2.2,1.7c-0.4,0.3-2.1,1.1-2.9,1.5
			c-1.3,0.7-2.2,1.9-3,3.2c0.7-0.8,2.1-1,3.5-1.3c-0.2,0.2-0.4,0.4-0.6,0.6c-1.5,1.7-2.8,2.7-3.1,5.1c1.5-1.4,2.9-2.3,4.7-3.3
			c1.2-0.7,1-0.7,2-1.6c-0.4,3-4.2,5-5.7,7.6c1.5-0.7,4.1-1.7,5.9-1.6c-1.7,0.7-2.6,2.6-2.6,4.3c1.7-1.9,3.6-1.1,5.2-3.3
			c-0.8,2.5-2.4,4.5-4.7,5.8c1.8-0.2,3-0.7,4.1-1.2c-0.2,0.3-0.3,0.7-0.6,1c-0.2,0.3-0.5,0.6-0.8,0.9c-0.2,0.1-0.5,0.2-0.6,0.3
			c1.2,0,2.3,0.2,3.3-0.5c-0.2,0.3-0.3,0.7-0.6,1c-0.3,0.5-0.7,0.9-1.2,1.3c-0.9,0.7-2.2,1.1-3.3,1.1c1.2,1.2,3.5,1.1,4.8,0.2
			C99.3,37.2,100.2,36,101.6,36.1"/>
	</g>
	<path style="fill:#877453;" d="M12.8,48.4c0,0,0,0,0,0.1l12.6-9.9c30.1,6.8,36.1,6.1,35.9,6.3c-0.3,0.3-14.8-2.5-36.1-10.5
		L12.8,48.4z"/>
	<g>
		<path style="fill:#877453;" d="M43.6,60.5c-0.3-0.4-0.9-0.8-1.4-0.9c-4.4-0.6-8.9-1.3-13.3-2c-0.4-0.1-0.8,0.3-0.8,0.9v50.3
			c0,0.6,0.4,1,0.8,0.9c1.8-0.3,3.7-0.5,5.5-0.8c0.4-0.1,0.8-0.6,0.8-1.1V95.2c0-0.6,0.4-1,0.8-1.1c1.8-0.1,3.6-0.2,5.4-0.3
			c0.4,0,1-0.4,1.4-0.8c1.3-1.7,2.7-3.4,4-5.1c0.3-0.4,0.6-1.1,0.6-1.6V66.2c0-0.5-0.3-1.3-0.6-1.7C45.8,63.2,44.7,61.9,43.6,60.5
			 M40.4,83c0,0.5-0.3,1.3-0.6,1.7c-0.2,0.2-0.3,0.4-0.5,0.6c-0.3,0.4-0.9,0.7-1.4,0.7c-0.6,0-1.2,0-1.8,0c-0.4,0-0.8-0.4-0.8-1
			V67.5c0-0.6,0.4-1,0.8-0.9c0.6,0.1,1.3,0.1,1.9,0.2c0.4,0,1,0.4,1.4,0.8c0.1,0.2,0.3,0.4,0.4,0.6c0.3,0.4,0.5,1.2,0.5,1.7V83z
			 M119.8,87.1c-0.3-0.3-0.3-0.8,0-1.1c0.7-0.6,1.4-1.3,2.1-1.9c0.3-0.3,0.6-0.9,0.6-1.3V68.9c0-0.4-0.3-1-0.6-1.3
			c-1.1-1-2.2-2-3.2-3.1c-0.3-0.3-0.9-0.5-1.4-0.6c-4.7,0-9.3-0.1-14-0.2c-0.5,0-0.8,0.3-0.8,0.8v38.2c0,0.4,0.4,0.8,0.8,0.8
			c1.9,0,3.7-0.1,5.6-0.1c0.4,0,0.8-0.4,0.8-0.8V90.4c0-0.4,0.4-0.8,0.8-0.8h2.4c0.4,0,1.1,0.3,1.4,0.6c0.3,0.3,0.5,0.5,0.7,0.8
			c0.3,0.3,0.5,0.9,0.5,1.4v10.3c0,0.4,0.4,0.8,0.8,0.8c1.9,0,3.8,0,5.6,0.1c0.4,0,0.8-0.4,0.8-0.8V91c0-0.4-0.3-1.1-0.6-1.4
			C121.5,88.7,120.7,87.9,119.8,87.1 M115.5,81c0,0.4-0.3,1.1-0.6,1.4c-0.2,0.2-0.4,0.3-0.5,0.5c-0.3,0.3-0.9,0.6-1.4,0.6h-2.4
			c-0.4,0-0.8-0.4-0.8-0.8v-12c0-0.4,0.4-0.8,0.8-0.8c0.9,0,1.7,0,2.6,0c0.4,0,1.1,0.3,1.4,0.6c0.1,0.1,0.3,0.3,0.4,0.4
			c0.3,0.3,0.6,0.9,0.6,1.4V81z M93.3,64.1c-0.3-0.3-0.9-0.6-1.4-0.6c-3.1-0.1-6.1-0.3-9.2-0.4c-0.4,0-1.1,0.2-1.4,0.5
			c-1.2,1.1-2.4,2.3-3.5,3.4c-0.3,0.3-0.6,0.9-0.6,1.4v30.4c0,0.5,0.2,1.1,0.6,1.4c1.2,1.2,2.3,2.4,3.5,3.6c0.3,0.3,0.9,0.6,1.4,0.5
			c3.1-0.2,6.2-0.3,9.3-0.4c0.4,0,1.1-0.3,1.4-0.6c1.1-1.1,2.1-2.3,3.2-3.4c0.3-0.3,0.6-1,0.6-1.4V68.9c0-0.4-0.3-1.1-0.6-1.4
			C95.4,66.4,94.3,65.3,93.3,64.1 M89.8,96.3c0,0.5-0.3,1.1-0.6,1.4c0,0,0,0,0,0c-0.3,0.3-0.9,0.6-1.4,0.6c-0.4,0-0.9,0-1.3,0.1
			c-0.4,0-1-0.2-1.3-0.6c0-0.1-0.1-0.1-0.1-0.2c-0.3-0.3-0.5-1-0.5-1.4V71.2c0-0.5,0.2-1.1,0.5-1.4c0.1-0.1,0.1-0.1,0.2-0.2
			c0.3-0.3,0.9-0.6,1.3-0.6c0.4,0,0.9,0,1.3,0c0.4,0,1,0.3,1.3,0.7c0,0,0.1,0.1,0.1,0.1c0.3,0.3,0.5,1,0.5,1.4V96.3z M195.8,62.6
			c-1.1-1.3-2.1-2.6-3.2-3.8c-0.3-0.4-0.9-0.6-1.4-0.5c-3,0.4-6.1,0.8-9.2,1.2c-0.4,0.1-1.1,0.4-1.4,0.8c-1.2,1.5-2.3,3-3.5,4.5
			c-0.3,0.4-0.6,1.1-0.6,1.7v34.2c0,0.5,0.2,1.3,0.6,1.7c1.1,1.5,2.3,3.1,3.4,4.7c0.3,0.4,0.9,0.8,1.3,0.9c3.1,0.4,6.2,0.8,9.3,1.2
			c0.4,0.1,1.1-0.2,1.4-0.5c1.1-1.3,2.1-2.6,3.2-3.9c0.3-0.4,0.6-1.2,0.6-1.7V64.4C196.4,63.8,196.1,63,195.8,62.6 M189.2,99.4
			c0,0.6-0.3,1.3-0.6,1.7c0,0,0,0,0,0c-0.3,0.4-0.9,0.6-1.4,0.6c-0.4,0-0.9-0.1-1.3-0.1c-0.4,0-1-0.4-1.3-0.9c0-0.1-0.1-0.1-0.1-0.2
			c-0.3-0.4-0.5-1.2-0.5-1.8V68.8c0-0.5,0.2-1.3,0.5-1.8c0.1-0.1,0.1-0.2,0.2-0.3c0.3-0.4,0.9-0.8,1.3-0.9c0.4,0,0.9-0.1,1.3-0.1
			c0.4,0,1,0.2,1.3,0.6c0,0,0.1,0.1,0.1,0.1c0.3,0.4,0.5,1.2,0.5,1.7V99.4z M143.9,62.9c-3.6,0.3-7.2,0.5-10.8,0.7
			c-0.4,0-0.8,0.4-0.9,0.8c-1.7,12.9-3.3,25.7-5,38.5c-0.1,0.4,0.3,0.8,0.7,0.8c1.9,0.1,3.9,0.1,5.8,0.2c0.4,0,0.8-0.3,0.9-0.8
			c0.3-2.8,0.6-5.7,0.9-8.5c0-0.4,0.5-0.8,0.9-0.8c1.5,0,3,0.1,4.5,0.1c0.4,0,0.8,0.4,0.9,0.8c0.3,2.9,0.6,5.8,0.9,8.7
			c0,0.5,0.4,0.8,0.9,0.9c1.9,0.1,3.8,0.2,5.7,0.3c0.4,0,0.8-0.3,0.7-0.8c-1.7-13.6-3.4-27-5.1-40.2
			C144.7,63.2,144.3,62.9,143.9,62.9 M140.1,88c-1.1,0-2.1,0-3.2,0c-0.4,0-0.8-0.4-0.7-0.8c0.6-5.6,1.2-11.2,1.8-16.8
			c0-0.4,0.3-0.8,0.6-0.8c0.2,0,0.5,0.4,0.5,0.8c0.6,5.6,1.2,11.2,1.8,16.8C140.9,87.6,140.6,88,140.1,88 M171.4,84
			c-0.3-0.4-0.8-0.9-1.2-1.1c-2.5-1.1-5.1-2.1-7.6-3.1c-0.4-0.2-1.1-0.5-1.5-0.7c-0.1-0.1-0.3-0.1-0.4-0.2c-0.4-0.2-0.7-0.8-0.7-1.2
			v-7.3c0-0.5,0.2-1.2,0.5-1.6c0.1-0.1,0.2-0.3,0.3-0.4c0.3-0.4,0.9-0.7,1.3-0.8c0.4,0,0.8-0.1,1.2-0.1c0.4,0,1,0.2,1.3,0.6
			c0.2,0.2,0.3,0.4,0.5,0.6c0.3,0.4,0.5,1.1,0.5,1.6v2.9c0,0.5,0.4,0.9,0.8,0.9c1.5-0.1,3.1-0.1,4.6-0.2c0.4,0,0.8-0.5,0.8-1v-7.1
			c0-0.5-0.2-1.2-0.5-1.5c-0.8-0.9-1.7-1.9-2.5-2.8c-0.3-0.3-0.9-0.6-1.4-0.5c-2.9,0.3-5.7,0.6-8.6,0.8c-0.4,0-1,0.4-1.4,0.7
			c-1,1.2-2,2.4-3,3.6c-0.3,0.4-0.6,1-0.6,1.5v15.6c0,0.5,0.3,1,0.7,1.2c3.3,1.3,6.7,2.7,10,4.1c0.4,0.2,0.8,0.7,0.8,1.2v7.3
			c0,0.5-0.2,1.2-0.6,1.5c-0.1,0.1-0.1,0.1-0.2,0.2c-0.3,0.3-0.9,0.6-1.4,0.6c-0.6,0-1.1-0.1-1.7-0.1c-0.4,0-1-0.4-1.3-0.8
			c-0.1-0.1-0.1-0.2-0.2-0.3c-0.3-0.4-0.5-1.1-0.5-1.6v-3.8c0-0.5-0.4-0.9-0.8-0.9c-1.5-0.1-3-0.1-4.5-0.1c-0.4,0-0.8,0.4-0.8,0.8
			v7.7c0,0.5,0.3,1.1,0.6,1.5c0.9,1,1.7,2,2.6,3c0.3,0.4,0.9,0.7,1.4,0.7c3.2,0.3,6.4,0.6,9.5,0.9c0.4,0,1.1-0.2,1.4-0.5
			c0.9-1,1.8-2,2.7-3c0.3-0.3,0.6-1,0.6-1.5V86.3c0-0.5-0.2-1.3-0.5-1.7C171.7,84.4,171.6,84.2,171.4,84 M69.1,87.3
			c-0.3-0.3-0.3-0.9,0-1.2c0.7-0.7,1.4-1.4,2.1-2.1c0.3-0.3,0.6-1,0.6-1.4V67.9c0-0.5-0.3-1.1-0.6-1.5c-1.1-1.2-2.2-2.4-3.2-3.6
			c-0.3-0.4-0.9-0.7-1.4-0.7c-4.6-0.4-9.3-0.9-13.9-1.5c-0.4-0.1-0.8,0.3-0.8,0.8v44.3c0,0.5,0.4,0.9,0.8,0.8
			c1.8-0.2,3.7-0.4,5.5-0.6c0.4,0,0.8-0.5,0.8-1V91.2c0-0.5,0.4-0.9,0.8-0.9c0.8,0,1.6,0,2.4-0.1c0.4,0,1,0.3,1.3,0.6
			c0.3,0.3,0.5,0.6,0.8,0.9c0.3,0.3,0.5,1,0.5,1.5v11.4c0,0.5,0.4,0.8,0.8,0.8c1.9-0.2,3.8-0.3,5.6-0.4c0.4,0,0.8-0.4,0.8-0.9V91.5
			c0-0.5-0.3-1.1-0.6-1.5C70.8,89.1,70,88.2,69.1,87.3 M64.8,80.8c0,0.5-0.3,1.2-0.6,1.5c-0.2,0.2-0.4,0.4-0.5,0.6
			c-0.3,0.3-0.9,0.6-1.4,0.6c-0.8,0-1.6,0-2.4,0c-0.4,0-0.8-0.4-0.8-0.9V69c0-0.5,0.4-0.9,0.8-0.8c0.9,0.1,1.7,0.1,2.6,0.2
			c0.4,0,1.1,0.3,1.4,0.7c0.1,0.2,0.3,0.3,0.4,0.5c0.3,0.4,0.6,1.1,0.6,1.5V80.8z"/>
	</g>
	<path style="fill:#877453;" d="M213.5,117.9c0,0,0,0,0-0.1l-12.6,9.9c-30.1-6.8-36.1-6.1-35.9-6.3c0.3-0.3,14.8,2.5,36.1,10.5
		L213.5,117.9z"/>
	<g>
		<g>
			<path style="fill:#877453;" d="M82.9,110.9c1.7-0.1,3.4-0.2,5.2-0.2c0,0.2,0,0.5,0,0.7c-1.4,0.1-2.9,0.1-4.3,0.2
				c0,0.8,0.1,1.7,0.1,2.5c1.3-0.1,2.6-0.1,3.9-0.2c0,0.2,0,0.5,0,0.7c-1.3,0.1-2.6,0.1-3.9,0.2c0,1,0.1,2,0.1,3c-0.3,0-0.5,0-0.8,0
				C83.1,115.5,83,113.2,82.9,110.9z"/>
			<path style="fill:#877453;" d="M91.7,110.5c0.3,0,0.5,0,0.8,0c0.1,2.3,0.1,4.6,0.2,7c-0.3,0-0.5,0-0.8,0
				C91.9,115.2,91.8,112.9,91.7,110.5z"/>
			<path style="fill:#877453;" d="M96.7,110.4c1,0,2.1,0,3.1-0.1c0.4,0,0.8,0,1.2,0.2c0.3,0.1,0.6,0.3,0.9,0.5
				c0.2,0.2,0.3,0.4,0.4,0.6c0.1,0.2,0.2,0.5,0.2,0.8c0,0,0,0,0,0c0,0.3,0,0.6-0.1,0.8c-0.1,0.2-0.2,0.4-0.4,0.6
				c-0.2,0.2-0.4,0.3-0.6,0.4c-0.2,0.1-0.5,0.2-0.8,0.2c0.7,0.9,1.5,1.9,2.2,2.8c-0.3,0-0.7,0-1,0c-0.7-0.9-1.4-1.8-2.1-2.7
				c0,0,0,0,0,0c-0.7,0-1.3,0-2,0c0,0.9,0,1.8,0.1,2.7c-0.3,0-0.5,0-0.8,0C96.8,115,96.8,112.7,96.7,110.4z M99.8,113.9
				c0.3,0,0.5,0,0.7-0.1c0.2-0.1,0.4-0.2,0.6-0.3c0.2-0.1,0.3-0.3,0.4-0.5c0.1-0.2,0.1-0.4,0.1-0.6c0,0,0,0,0,0c0-0.4-0.2-0.8-0.5-1
				c-0.3-0.2-0.8-0.3-1.4-0.3c-0.7,0-1.5,0-2.2,0c0,0.9,0,1.9,0.1,2.8C98.3,113.9,99.1,113.9,99.8,113.9z"/>
			<path style="fill:#877453;" d="M106.2,110.2c1.7,0,3.5,0,5.2,0c0,0.2,0,0.5,0,0.7c-1.5,0-2.9,0-4.4,0c0,0.8,0,1.6,0,2.4
				c1.3,0,2.6,0,3.9,0c0,0.2,0,0.5,0,0.7c-1.3,0-2.6,0-3.9,0c0,0.8,0,1.6,0,2.4c1.5,0,2.9,0,4.4,0c0,0.2,0,0.5,0,0.7
				c-1.7,0-3.5,0-5.2,0C106.2,114.9,106.2,112.6,106.2,110.2z"/>
			<path style="fill:#877453;" d="M115.1,110.2c0.3,0,0.5,0,0.8,0c1.5,1.9,3,3.7,4.4,5.6c0-1.9,0.1-3.7,0.1-5.6c0.3,0,0.5,0,0.8,0
				c0,2.3-0.1,4.6-0.1,7c-0.2,0-0.4,0-0.6,0c-1.5-1.9-3-3.8-4.5-5.8c0,1.9,0,3.8,0,5.7c-0.3,0-0.5,0-0.8,0
				C115.1,114.9,115.1,112.6,115.1,110.2z"/>
			<path style="fill:#877453;" d="M124.8,116.8c1.6-1.9,3.2-3.7,4.8-5.6c-1.5,0-3-0.1-4.5-0.1c0-0.2,0-0.5,0-0.7
				c1.9,0,3.7,0.1,5.6,0.2c0,0.2,0,0.4,0,0.5c-1.6,1.9-3.2,3.7-4.8,5.6c1.5,0,3.1,0.1,4.6,0.1c0,0.2,0,0.5,0,0.7
				c-1.9-0.1-3.8-0.1-5.7-0.2C124.8,117.2,124.8,117,124.8,116.8z"/>
			<path style="fill:#877453;" d="M134.5,110.7c1.7,0.1,3.5,0.1,5.2,0.2c0,0.2,0,0.5,0,0.7c-1.5-0.1-2.9-0.1-4.4-0.2
				c0,0.8-0.1,1.6-0.1,2.4c1.3,0.1,2.6,0.1,3.9,0.2c0,0.2,0,0.5,0,0.7c-1.3-0.1-2.6-0.1-3.9-0.2c0,0.8-0.1,1.6-0.1,2.4
				c1.5,0.1,2.9,0.1,4.4,0.2c0,0.2,0,0.5,0,0.7c-1.7-0.1-3.5-0.2-5.2-0.2C134.3,115.3,134.4,113,134.5,110.7z"/>
		</g>
	</g>
	<g>
		<g>
			<path style="fill:#877453;" d="M68.7,50c0.2,0,0.4,0,0.6,0.1c0.7,2,1.4,3.9,2.2,5.9c-0.2,0-0.5,0-0.7-0.1c-0.2-0.5-0.4-1-0.6-1.5
				c-1.1-0.1-2.1-0.2-3.2-0.3c-0.3,0.5-0.5,0.9-0.8,1.4c-0.2,0-0.4,0-0.7-0.1C66.6,53.6,67.6,51.8,68.7,50z M69.9,53.7
				c-0.4-1-0.7-2-1.1-3c-0.5,0.9-1,1.8-1.6,2.7C68.2,53.5,69.1,53.6,69.9,53.7z"/>
			<path style="fill:#877453;" d="M73.8,50.4c0.2,0,0.4,0,0.6,0.1c-0.1,1.9-0.3,3.7-0.4,5.6c-0.2,0-0.4,0-0.7-0.1
				C73.5,54.2,73.7,52.3,73.8,50.4z"/>
			<path style="fill:#877453;" d="M78.8,56.5c-0.4,0-0.7-0.1-1-0.2c-0.3-0.1-0.5-0.3-0.7-0.5c-0.2-0.2-0.3-0.5-0.4-0.8
				c-0.1-0.3-0.1-0.7-0.1-1.1c0.1-1.1,0.2-2.2,0.2-3.3c0.2,0,0.4,0,0.6,0c-0.1,1.1-0.2,2.2-0.2,3.2c0,0.6,0.1,1.1,0.4,1.4
				c0.3,0.3,0.7,0.5,1.3,0.6c0.5,0,1-0.1,1.3-0.4c0.3-0.3,0.5-0.7,0.6-1.4c0.1-1.1,0.1-2.2,0.2-3.3c0.2,0,0.4,0,0.6,0
				c-0.1,1.1-0.1,2.1-0.2,3.2c0,0.4-0.1,0.8-0.2,1.1c-0.1,0.3-0.3,0.6-0.5,0.7c-0.2,0.2-0.5,0.3-0.8,0.4
				C79.5,56.5,79.1,56.6,78.8,56.5z"/>
			<path style="fill:#877453;" d="M85.3,51.8c-0.6,0-1.3-0.1-1.9-0.1c0-0.2,0-0.4,0-0.6c1.5,0.1,3,0.2,4.5,0.2c0,0.2,0,0.4,0,0.6
				c-0.6,0-1.3-0.1-1.9-0.1c-0.1,1.7-0.2,3.4-0.3,5c-0.2,0-0.4,0-0.7,0C85.1,55.1,85.2,53.5,85.3,51.8z"/>
			<path style="fill:#877453;" d="M92,51.5c0.2,0,0.4,0,0.6,0c0.8,1.9,1.6,3.8,2.4,5.8c-0.2,0-0.5,0-0.7,0c-0.2-0.5-0.4-1-0.6-1.5
				c-1.1,0-2.1-0.1-3.2-0.1c-0.3,0.5-0.5,1-0.8,1.5c-0.2,0-0.4,0-0.7,0C90.1,55.2,91.1,53.3,92,51.5z M93.5,55.2
				c-0.4-1-0.8-1.9-1.2-2.9c-0.5,0.9-1,1.9-1.4,2.8C91.7,55.1,92.6,55.1,93.5,55.2z"/>
			<path style="fill:#877453;" d="M102.9,57.6c-0.4,0-0.8-0.1-1.2-0.2c-0.4-0.2-0.7-0.4-0.9-0.6c-0.3-0.3-0.5-0.6-0.6-0.9
				c-0.1-0.4-0.2-0.7-0.2-1.1c0,0,0,0,0,0c0-0.4,0.1-0.8,0.2-1.1c0.2-0.4,0.4-0.7,0.6-0.9c0.3-0.3,0.6-0.5,0.9-0.6
				c0.4-0.1,0.7-0.2,1.2-0.2c0.3,0,0.5,0,0.7,0.1c0.2,0,0.4,0.1,0.6,0.2c0.2,0.1,0.3,0.2,0.5,0.3c0.2,0.1,0.3,0.2,0.4,0.4
				c-0.2,0.2-0.3,0.3-0.5,0.5c-0.2-0.2-0.5-0.4-0.8-0.6c-0.3-0.1-0.6-0.2-1-0.2c-0.3,0-0.6,0-0.9,0.2c-0.3,0.1-0.5,0.3-0.7,0.5
				c-0.2,0.2-0.4,0.4-0.5,0.7c-0.1,0.3-0.2,0.6-0.2,0.9c0,0,0,0,0,0c0,0.3,0,0.6,0.1,0.9c0.1,0.3,0.3,0.5,0.5,0.7
				c0.2,0.2,0.4,0.4,0.7,0.5c0.3,0.1,0.6,0.2,0.9,0.2c0.4,0,0.7-0.1,1-0.2c0.3-0.1,0.6-0.3,0.9-0.6c0.1,0.1,0.3,0.3,0.4,0.4
				c-0.2,0.1-0.3,0.3-0.5,0.4c-0.2,0.1-0.3,0.2-0.5,0.3c-0.2,0.1-0.4,0.1-0.6,0.2C103.4,57.6,103.1,57.6,102.9,57.6z"/>
			<path style="fill:#877453;" d="M107.2,51.9c0.2,0,0.4,0,0.6,0c0,0.8,0,1.7,0,2.5c1.1,0,2.2,0,3.3,0c0-0.8,0-1.7,0-2.5
				c0.2,0,0.4,0,0.7,0c0,1.9,0,3.8,0,5.6c-0.2,0-0.4,0-0.7,0c0-0.8,0-1.7,0-2.5c-1.1,0-2.2,0-3.3,0c0,0.8,0,1.7,0,2.5
				c-0.2,0-0.4,0-0.7,0C107.1,55.7,107.1,53.8,107.2,51.9z"/>
			<path style="fill:#877453;" d="M114.2,51.9c0.2,0,0.4,0,0.7,0c0,1.9,0,3.8,0,5.6c-0.2,0-0.4,0-0.7,0
				C114.2,55.7,114.2,53.8,114.2,51.9z"/>
			<path style="fill:#877453;" d="M122.6,57.5c-0.5,0-0.9-0.1-1.3-0.2c-0.4-0.1-0.8-0.4-1.1-0.7c0.1-0.2,0.3-0.3,0.4-0.5
				c0.3,0.3,0.6,0.5,0.9,0.6c0.3,0.1,0.7,0.2,1.1,0.2c0.4,0,0.7-0.1,0.9-0.3c0.2-0.2,0.3-0.4,0.3-0.7c0,0,0,0,0,0
				c0-0.1,0-0.2-0.1-0.3c0-0.1-0.1-0.2-0.2-0.3c-0.1-0.1-0.3-0.2-0.5-0.2c-0.2-0.1-0.4-0.1-0.8-0.2c-0.3-0.1-0.6-0.1-0.9-0.2
				c-0.2-0.1-0.5-0.2-0.6-0.3c-0.2-0.1-0.3-0.3-0.4-0.4c-0.1-0.2-0.1-0.4-0.1-0.6c0,0,0,0,0,0c0-0.2,0-0.4,0.1-0.6
				c0.1-0.2,0.2-0.4,0.4-0.5c0.2-0.1,0.4-0.3,0.6-0.3c0.2-0.1,0.5-0.1,0.8-0.1c0.4,0,0.8,0,1.1,0.1c0.3,0.1,0.6,0.3,0.9,0.5
				c-0.1,0.2-0.2,0.3-0.4,0.5c-0.3-0.2-0.5-0.4-0.8-0.4c-0.3-0.1-0.6-0.1-0.9-0.1c-0.4,0-0.7,0.1-0.9,0.3c-0.2,0.2-0.3,0.4-0.3,0.7
				c0,0,0,0,0,0c0,0.1,0,0.3,0.1,0.4c0,0.1,0.1,0.2,0.2,0.3c0.1,0.1,0.3,0.2,0.5,0.2c0.2,0.1,0.5,0.1,0.8,0.2
				c0.6,0.1,1.1,0.3,1.4,0.5c0.3,0.2,0.5,0.6,0.5,1c0,0,0,0,0,0c0,0.2,0,0.5-0.1,0.7c-0.1,0.2-0.2,0.4-0.4,0.5
				c-0.2,0.1-0.4,0.3-0.6,0.3C123.1,57.5,122.9,57.5,122.6,57.5z"/>
			<path style="fill:#877453;" d="M126.5,51.7c0.2,0,0.4,0,0.7,0c0.1,1.9,0.1,3.8,0.2,5.6c-0.2,0-0.4,0-0.7,0
				C126.6,55.5,126.6,53.6,126.5,51.7z"/>
			<path style="fill:#877453;" d="M132.8,51.5c0.8,0,1.6-0.1,2.5-0.1c0.4,0,0.7,0,1,0.1c0.3,0.1,0.5,0.2,0.7,0.4
				c0.1,0.1,0.3,0.3,0.4,0.5c0.1,0.2,0.1,0.4,0.1,0.6c0,0,0,0,0,0c0,0.2,0,0.4-0.1,0.6c-0.1,0.2-0.2,0.4-0.3,0.5
				c-0.1,0.1-0.3,0.3-0.5,0.4c-0.2,0.1-0.4,0.2-0.6,0.2c0.6,0.7,1.3,1.5,1.9,2.2c-0.3,0-0.5,0-0.8,0c-0.6-0.7-1.2-1.4-1.8-2.1
				c0,0,0,0,0,0c-0.5,0-1.1,0.1-1.6,0.1c0,0.7,0.1,1.5,0.1,2.2c-0.2,0-0.4,0-0.7,0C133,55.2,132.9,53.4,132.8,51.5z M135.4,54.2
				c0.2,0,0.4,0,0.6-0.1c0.2-0.1,0.3-0.1,0.5-0.3c0.1-0.1,0.2-0.2,0.3-0.4c0.1-0.1,0.1-0.3,0.1-0.5c0,0,0,0,0,0
				c0-0.3-0.2-0.6-0.4-0.8c-0.3-0.2-0.6-0.3-1.1-0.2c-0.6,0-1.2,0.1-1.8,0.1c0,0.8,0.1,1.5,0.1,2.3
				C134.2,54.3,134.8,54.3,135.4,54.2z"/>
			<path style="fill:#877453;" d="M141.6,51c0.2,0,0.4,0,0.6,0c1,1.8,2,3.7,3,5.5c-0.2,0-0.5,0-0.7,0c-0.3-0.5-0.5-1-0.8-1.4
				c-1.1,0.1-2.1,0.1-3.2,0.2c-0.2,0.5-0.4,1-0.6,1.5c-0.2,0-0.4,0-0.7,0C140.1,54.9,140.9,52.9,141.6,51z M143.5,54.5
				c-0.5-0.9-1-1.9-1.5-2.8c-0.4,1-0.8,2-1.1,2.9C141.7,54.6,142.6,54.6,143.5,54.5z"/>
			<path style="fill:#877453;" d="M146.7,50.7c0.7,0,1.3-0.1,2-0.1c0.4,0,0.9,0,1.3,0.1c0.4,0.1,0.7,0.3,1,0.5
				c0.3,0.2,0.5,0.5,0.7,0.8c0.2,0.3,0.3,0.7,0.3,1.1c0,0,0,0,0,0c0,0.4,0,0.8-0.1,1.1c-0.1,0.4-0.3,0.7-0.6,0.9
				c-0.3,0.3-0.6,0.5-0.9,0.7c-0.4,0.2-0.8,0.3-1.2,0.3c-0.7,0.1-1.3,0.1-2,0.1C147,54.4,146.9,52.6,146.7,50.7z M149.1,55.6
				c0.4,0,0.7-0.1,1-0.2c0.3-0.1,0.5-0.3,0.7-0.5c0.2-0.2,0.3-0.5,0.4-0.7c0.1-0.3,0.1-0.6,0.1-0.9c0,0,0,0,0,0
				c0-0.3-0.1-0.6-0.2-0.9c-0.1-0.3-0.3-0.5-0.5-0.7c-0.2-0.2-0.5-0.3-0.8-0.4c-0.3-0.1-0.6-0.1-1-0.1c-0.4,0-0.9,0.1-1.3,0.1
				c0.1,1.5,0.2,3,0.3,4.4C148.2,55.7,148.6,55.6,149.1,55.6z"/>
			<path style="fill:#877453;" d="M153.9,50.1c1.4-0.1,2.8-0.2,4.1-0.4c0,0.2,0,0.4,0.1,0.6c-1.2,0.1-2.3,0.2-3.5,0.3
				c0.1,0.6,0.1,1.3,0.2,1.9c1-0.1,2.1-0.2,3.1-0.3c0,0.2,0,0.4,0.1,0.6c-1.1,0.1-2.1,0.2-3.2,0.3c0.1,0.7,0.1,1.3,0.2,2
				c1.2-0.1,2.4-0.2,3.6-0.3c0,0.2,0,0.4,0.1,0.6c-1.4,0.1-2.8,0.3-4.2,0.4C154.2,53.9,154,52,153.9,50.1z"/>
		</g>
	</g>
</g>
</svg>
